<?xml version="1.0" encoding="UTF-8" standalone="no"?>
<!-- Created with Inkscape (http://www.inkscape.org/) -->

<svg
   version="1.1"
   id="svg1"
   width="880"
   height="880"
   viewBox="0 0 880 880"
   sodipodi:docname="diving-helmet-publicdomainvectors.org.svg"
   inkscape:version="1.3.2 (091e20e, 2023-11-25, custom)"
   xmlns:inkscape="http://www.inkscape.org/namespaces/inkscape"
   xmlns:sodipodi="http://sodipodi.sourceforge.net/DTD/sodipodi-0.dtd"
   xmlns="http://www.w3.org/2000/svg"
   xmlns:svg="http://www.w3.org/2000/svg">
  <defs
     id="defs1">
    <clipPath
       clipPathUnits="userSpaceOnUse"
       id="clipPath4">
      <path
         d="M 0,660 H 660 V 0 H 0 Z"
         transform="translate(-330.01221,-57.230499)"
         id="path4" />
    </clipPath>
    <clipPath
       clipPathUnits="userSpaceOnUse"
       id="clipPath6">
      <path
         d="M 0,660 H 660 V 0 H 0 Z"
         transform="translate(-330.01221,-57.230499)"
         id="path6" />
    </clipPath>
    <clipPath
       clipPathUnits="userSpaceOnUse"
       id="clipPath8">
      <path
         d="M 0,660 H 660 V 0 H 0 Z"
         transform="translate(-412.34381,-319.10161)"
         id="path8" />
    </clipPath>
    <clipPath
       clipPathUnits="userSpaceOnUse"
       id="clipPath10">
      <path
         d="M 0,660 H 660 V 0 H 0 Z"
         transform="translate(-330.01221,-267.53421)"
         id="path10" />
    </clipPath>
    <clipPath
       clipPathUnits="userSpaceOnUse"
       id="clipPath12">
      <path
         d="M 0,660 H 660 V 0 H 0 Z"
         transform="translate(-299.49021,-415.70021)"
         id="path12" />
    </clipPath>
    <clipPath
       clipPathUnits="userSpaceOnUse"
       id="clipPath14">
      <path
         d="M 0,660 H 660 V 0 H 0 Z"
         transform="translate(-502.08301,-410.95261)"
         id="path14" />
    </clipPath>
    <clipPath
       clipPathUnits="userSpaceOnUse"
       id="clipPath16">
      <path
         d="M 0,660 H 660 V 0 H 0 Z"
         transform="translate(-477.11721,-343.62601)"
         id="path16" />
    </clipPath>
    <clipPath
       clipPathUnits="userSpaceOnUse"
       id="clipPath18">
      <path
         d="M 0,660 H 660 V 0 H 0 Z"
         transform="translate(-504.91501,-343.62601)"
         id="path18" />
    </clipPath>
    <clipPath
       clipPathUnits="userSpaceOnUse"
       id="clipPath20">
      <path
         d="M 0,660 H 660 V 0 H 0 Z"
         transform="translate(-504.91501,-368.82911)"
         id="path20" />
    </clipPath>
    <clipPath
       clipPathUnits="userSpaceOnUse"
       id="clipPath22">
      <path
         d="M 0,660 H 660 V 0 H 0 Z"
         transform="translate(-494.98631,-378.07081)"
         id="path22" />
    </clipPath>
    <clipPath
       clipPathUnits="userSpaceOnUse"
       id="clipPath24">
      <path
         d="M 0,660 H 660 V 0 H 0 Z"
         transform="translate(-504.91501,-366.76461)"
         id="path24" />
    </clipPath>
    <clipPath
       clipPathUnits="userSpaceOnUse"
       id="clipPath26">
      <path
         d="M 0,660 H 660 V 0 H 0 Z"
         transform="translate(-157.9126,-410.97021)"
         id="path26" />
    </clipPath>
    <clipPath
       clipPathUnits="userSpaceOnUse"
       id="clipPath28">
      <path
         d="M 0,660 H 660 V 0 H 0 Z"
         transform="translate(-182.87841,-343.64361)"
         id="path28" />
    </clipPath>
    <clipPath
       clipPathUnits="userSpaceOnUse"
       id="clipPath30">
      <path
         d="M 0,660 H 660 V 0 H 0 Z"
         transform="translate(-155.0811,-343.64361)"
         id="path30" />
    </clipPath>
    <clipPath
       clipPathUnits="userSpaceOnUse"
       id="clipPath32">
      <path
         d="M 0,660 H 660 V 0 H 0 Z"
         transform="translate(-155.0811,-368.84671)"
         id="path32" />
    </clipPath>
    <clipPath
       clipPathUnits="userSpaceOnUse"
       id="clipPath34">
      <path
         d="M 0,660 H 660 V 0 H 0 Z"
         transform="translate(-165.0093,-378.08791)"
         id="path34" />
    </clipPath>
    <clipPath
       clipPathUnits="userSpaceOnUse"
       id="clipPath36">
      <path
         d="M 0,660 H 660 V 0 H 0 Z"
         transform="translate(-155.0806,-366.78171)"
         id="path36" />
    </clipPath>
    <clipPath
       clipPathUnits="userSpaceOnUse"
       id="clipPath38">
      <path
         d="M 0,660 H 660 V 0 H 0 Z"
         transform="translate(-330.01221,-275.6611)"
         id="path38" />
    </clipPath>
    <clipPath
       clipPathUnits="userSpaceOnUse"
       id="clipPath40">
      <path
         d="M 0,660 H 660 V 0 H 0 Z"
         transform="translate(-330.01221,-297.42771)"
         id="path40" />
    </clipPath>
    <clipPath
       clipPathUnits="userSpaceOnUse"
       id="clipPath42">
      <path
         d="M 0,660 H 660 V 0 H 0 Z"
         transform="translate(-330.01221,-290.93551)"
         id="path42" />
    </clipPath>
    <clipPath
       clipPathUnits="userSpaceOnUse"
       id="clipPath44">
      <path
         d="M 0,660 H 660 V 0 H 0 Z"
         transform="translate(-330.01221,-311.77051)"
         id="path44" />
    </clipPath>
    <clipPath
       clipPathUnits="userSpaceOnUse"
       id="clipPath46">
      <path
         d="M 0,660 H 660 V 0 H 0 Z"
         transform="translate(-330.01221,-328.74021)"
         id="path46" />
    </clipPath>
    <clipPath
       clipPathUnits="userSpaceOnUse"
       id="clipPath48">
      <path
         d="M 0,660 H 660 V 0 H 0 Z"
         transform="translate(-305.57131,-489.33401)"
         id="path48" />
    </clipPath>
    <clipPath
       clipPathUnits="userSpaceOnUse"
       id="clipPath50">
      <path
         d="M 0,660 H 660 V 0 H 0 Z"
         transform="translate(-480.65921,-228.2881)"
         id="path50" />
    </clipPath>
    <clipPath
       clipPathUnits="userSpaceOnUse"
       id="clipPath52">
      <path
         d="M 0,660 H 660 V 0 H 0 Z"
         transform="translate(-484.25391,-226.6816)"
         id="path52" />
    </clipPath>
    <clipPath
       clipPathUnits="userSpaceOnUse"
       id="clipPath54">
      <path
         d="M 0,660 H 660 V 0 H 0 Z"
         transform="translate(-237.77931,-192.23631)"
         id="path54" />
    </clipPath>
  </defs>
  <sodipodi:namedview
     id="namedview1"
     pagecolor="#ffffff"
     bordercolor="#000000"
     borderopacity="0.25"
     inkscape:showpageshadow="2"
     inkscape:pageopacity="0.0"
     inkscape:pagecheckerboard="0"
     inkscape:deskcolor="#d1d1d1"
     inkscape:zoom="0.67272727"
     inkscape:cx="439.25676"
     inkscape:cy="440"
     inkscape:window-width="1440"
     inkscape:window-height="830"
     inkscape:window-x="-6"
     inkscape:window-y="-6"
     inkscape:window-maximized="1"
     inkscape:current-layer="g1">
    <inkscape:page
       x="0"
       y="0"
       inkscape:label="1"
       id="page1"
       width="880"
       height="880"
       margin="0.18092801 0.088 0 0.083984397"
       bleed="0" />
  </sodipodi:namedview>
  <g
     id="g1"
     inkscape:groupmode="layer"
     inkscape:label="1">
    <g
       id="group-MC0">
      <path
         id="path2"
         d="M 0.063,0.136 H 659.934 V 660 H 0.063 Z"
         style="fill:#463d3b;fill-opacity:1;fill-rule:nonzero;stroke:none"
         transform="matrix(1.3333333,0,0,-1.3333333,0,880)" />
      <path
         id="path3"
         d="m 0,0 c -102.628,0 -107.235,107.236 -160.853,160.852 54.242,3.383 75.606,44.904 78.928,107.354 101.632,-11.542 72.856,-16.695 163.849,0 3.322,-62.45 24.686,-103.971 78.927,-107.354 C 107.234,107.236 102.627,0 0,0"
         style="fill:#df8c16;fill-opacity:1;fill-rule:evenodd;stroke:none"
         transform="matrix(1.3333333,0,0,-1.3333333,440.01627,803.69267)"
         clip-path="url(#clipPath4)" />
      <path
         id="path5"
         d="M 0,0 C -25.353,0 -44.718,6.553 -60.323,17.216 L -75.97,37.04 C 8.328,-0.973 41.906,51.177 70.017,113.049 c 6.898,15.182 6.501,31.126 -1.143,45.946 -1.971,3.82 -3.674,7.854 -5.116,12.097 -4.036,11.877 -15.631,19.06 -28.061,17.39 -48.125,-6.466 -89.658,5.008 -123.991,36.084 l -0.004,0.003 c 2.428,9.065 4.159,18.939 5.27,29.531 l 57.687,6.762 c 38.152,-5.402 39.556,-5.079 107.265,7.344 3.322,-62.45 24.686,-103.971 78.927,-107.354 C 107.234,107.236 102.627,0 0,0"
         style="fill:#ce801a;fill-opacity:1;fill-rule:evenodd;stroke:none"
         transform="matrix(1.3333333,0,0,-1.3333333,440.01627,803.69267)"
         clip-path="url(#clipPath6)" />
      <path
         id="path7"
         d="M 0,0 C 4.417,-58.91 26.135,-97.75 78.52,-101.02 40.016,-139.524 26.784,-205.68 -15.624,-239.914 l -11.608,9.748 c 29.79,28.25 38.057,68.17 51.932,105.046 4.123,10.957 1.891,22.515 -6.015,31.146 -6.331,6.914 -11.458,16.036 -16.129,25.992 -5.877,12.531 -19.042,19.272 -32.644,16.717 -27.331,-5.132 -55.197,-5.067 -83.835,2.543 32.106,17.304 64.211,34.607 96.316,51.91 z"
         style="fill:#be781c;fill-opacity:1;fill-rule:evenodd;stroke:none"
         transform="matrix(1.3333333,0,0,-1.3333333,549.79173,454.5312)"
         clip-path="url(#clipPath8)" />
      <path
         id="path9"
         d="m 0,0 c 96.333,0 174.904,78.57 174.904,174.904 0,96.334 -78.571,174.904 -174.904,174.904 -96.335,0 -174.904,-78.57 -174.904,-174.904 C -174.904,78.57 -96.335,0 0,0"
         style="fill:#df8c16;fill-opacity:1;fill-rule:evenodd;stroke:none"
         transform="matrix(1.3333333,0,0,-1.3333333,440.01627,523.28773)"
         clip-path="url(#clipPath10)" />
      <path
         id="path11"
         d="m 0,0 c 61.216,0 111.144,40.967 111.144,91.197 0,50.229 -49.928,91.197 -111.144,91.197 -61.216,0 -111.142,-40.968 -111.142,-91.197 C -111.142,40.967 -61.216,0 0,0"
         style="fill:#f39c0f;fill-opacity:1;fill-rule:evenodd;stroke:none"
         transform="matrix(1.3333333,0,0,-1.3333333,399.32027,325.73307)"
         clip-path="url(#clipPath12)" />
      <path
         id="path13"
         d="m 0,0 c -5.765,-31.713 -20.085,-60.441 -40.478,-83.717 -8.931,17.149 -15.037,51.738 -15.037,91.618 0,56.944 12.447,103.105 27.797,103.105 15.354,0 27.799,-46.161 27.799,-103.105 C 0.081,5.243 0.054,2.608 0,0"
         style="fill:#be781c;fill-opacity:1;fill-rule:evenodd;stroke:none"
         transform="matrix(1.3333333,0,0,-1.3333333,669.444,332.0632)"
         clip-path="url(#clipPath14)" />
      <path
         id="path15"
         d="m 0,0 c -15.352,0 -27.797,46.162 -27.797,103.104 0,56.943 12.445,103.105 27.797,103.105 H 27.798 V 103.104 0 Z"
         style="fill:#fbca07;fill-opacity:1;fill-rule:evenodd;stroke:none"
         transform="matrix(1.3333333,0,0,-1.3333333,636.15627,421.832)"
         clip-path="url(#clipPath16)" />
      <path
         id="path17"
         d="m 0,0 c 15.311,0 27.799,46.316 27.799,103.104 0,56.789 -12.488,103.105 -27.799,103.105 -15.31,0 -27.798,-46.316 -27.798,-103.105 C -27.798,46.316 -15.31,0 0,0"
         style="fill:#fab40a;fill-opacity:1;fill-rule:evenodd;stroke:none"
         transform="matrix(1.3333333,0,0,-1.3333333,673.22,421.832)"
         clip-path="url(#clipPath18)" />
      <path
         id="path19"
         d="m 0,0 c 11.567,0 21.003,34.995 21.003,77.901 0,42.908 -9.436,77.902 -21.003,77.902 -11.568,0 -21.003,-34.994 -21.003,-77.902 C -21.003,34.995 -11.568,0 0,0"
         style="fill:#df8c16;fill-opacity:1;fill-rule:evenodd;stroke:none"
         transform="matrix(1.3333333,0,0,-1.3333333,673.22,388.22787)"
         clip-path="url(#clipPath20)" />
      <path
         id="path21"
         d="m 0,0 c -6.592,13.142 -11.074,38.958 -11.074,68.66 0,29.702 4.482,55.518 11.074,68.66 C 6.592,124.178 11.075,98.362 11.075,68.66 11.075,38.958 6.592,13.142 0,0"
         style="fill:#523816;fill-opacity:1;fill-rule:evenodd;stroke:none"
         transform="matrix(1.3333333,0,0,-1.3333333,659.98173,375.9056)"
         clip-path="url(#clipPath22)" />
      <path
         id="path23"
         d="m 0,0 c 7.333,0 6.947,-19.548 0,-19.548 -1.454,0 -2.636,4.376 -2.636,9.774 C -2.636,-4.376 -1.454,0 0,0 m 0,181.102 c 7.333,0 6.947,-19.549 0,-19.549 -1.454,0 -2.636,4.377 -2.636,9.775 0,5.398 1.182,9.774 2.636,9.774"
         style="fill:#f9de1c;fill-opacity:1;fill-rule:evenodd;stroke:none"
         transform="matrix(1.3333333,0,0,-1.3333333,673.22,390.98053)"
         clip-path="url(#clipPath24)" />
      <path
         id="path25"
         d="m 0,0 c 5.766,-31.713 20.085,-60.441 40.477,-83.718 8.932,17.15 15.038,51.739 15.038,91.619 0,56.943 -12.445,103.104 -27.798,103.104 C 12.366,111.005 -0.081,64.844 -0.081,7.901 -0.081,5.243 -0.053,2.608 0,0"
         style="fill:#be781c;fill-opacity:1;fill-rule:evenodd;stroke:none"
         transform="matrix(1.3333333,0,0,-1.3333333,210.55013,332.03973)"
         clip-path="url(#clipPath26)" />
      <path
         id="path27"
         d="M 0,0 C 15.352,0 27.797,46.162 27.797,103.104 27.797,160.047 15.352,206.209 0,206.209 H -27.798 V 103.104 0 Z"
         style="fill:#fbca07;fill-opacity:1;fill-rule:evenodd;stroke:none"
         transform="matrix(1.3333333,0,0,-1.3333333,243.83787,421.80853)"
         clip-path="url(#clipPath28)" />
      <path
         id="path29"
         d="m 0,0 c 15.31,0 27.797,46.316 27.797,103.104 0,56.789 -12.487,103.105 -27.797,103.105 -15.31,0 -27.798,-46.316 -27.798,-103.105 C -27.798,46.316 -15.31,0 0,0"
         style="fill:#fab40a;fill-opacity:1;fill-rule:evenodd;stroke:none"
         transform="matrix(1.3333333,0,0,-1.3333333,206.7748,421.80853)"
         clip-path="url(#clipPath30)" />
      <path
         id="path31"
         d="m 0,0 c 11.568,0 21.003,34.995 21.003,77.901 0,42.907 -9.435,77.901 -21.003,77.901 -11.568,0 -21.003,-34.994 -21.003,-77.901 C -21.003,34.995 -11.568,0 0,0"
         style="fill:#df8c16;fill-opacity:1;fill-rule:evenodd;stroke:none"
         transform="matrix(1.3333333,0,0,-1.3333333,206.7748,388.2044)"
         clip-path="url(#clipPath32)" />
      <path
         id="path33"
         d="M 0,0 C 6.591,13.142 11.074,38.958 11.074,68.66 11.074,98.362 6.591,124.178 0,137.32 -6.591,124.178 -11.074,98.362 -11.074,68.66 -11.074,38.958 -6.591,13.142 0,0"
         style="fill:#523816;fill-opacity:1;fill-rule:evenodd;stroke:none"
         transform="matrix(1.3333333,0,0,-1.3333333,220.0124,375.8828)"
         clip-path="url(#clipPath34)" />
      <path
         id="path35"
         d="m 0,0 c -7.332,0 -6.947,-19.548 0,-19.548 1.455,0 2.635,4.377 2.635,9.775 C 2.635,-4.375 1.455,0 0,0 m 0,181.101 c -7.332,0 -6.947,-19.547 0,-19.547 1.455,0 2.635,4.376 2.635,9.774 0,5.397 -1.18,9.773 -2.635,9.773"
         style="fill:#f9de1c;fill-opacity:1;fill-rule:evenodd;stroke:none"
         transform="matrix(1.3333333,0,0,-1.3333333,206.77413,390.95773)"
         clip-path="url(#clipPath36)" />
      <path
         id="path37"
         d="m 0,0 c 66.252,0 120.289,54.036 120.289,120.289 0,66.252 -54.037,120.288 -120.289,120.288 -66.252,0 -120.289,-54.036 -120.289,-120.288 C -120.289,54.036 -66.252,0 0,0"
         style="fill:#be781c;fill-opacity:1;fill-rule:evenodd;stroke:none"
         transform="matrix(1.3333333,0,0,-1.3333333,440.01627,512.45187)"
         clip-path="url(#clipPath38)" />
      <path
         id="path39"
         d="m 0,0 c 66.252,0 120.289,54.036 120.289,120.289 0,66.252 -54.037,120.288 -120.289,120.288 -66.252,0 -120.289,-54.036 -120.289,-120.288 C -120.289,54.036 -66.252,0 0,0"
         style="fill:#fab40a;fill-opacity:1;fill-rule:evenodd;stroke:none"
         transform="matrix(1.3333333,0,0,-1.3333333,440.01627,483.42973)"
         clip-path="url(#clipPath40)" />
      <path
         id="path41"
         d="m 0,0 c 66.252,0 120.289,54.036 120.289,120.29 0,66.253 -54.037,120.288 -120.289,120.288 -66.252,0 -120.289,-54.035 -120.289,-120.288 C -120.289,54.036 -66.252,0 0,0"
         style="fill:#f9de1c;fill-opacity:1;fill-rule:evenodd;stroke:none"
         transform="matrix(1.3333333,0,0,-1.3333333,440.01627,492.086)"
         clip-path="url(#clipPath42)" />
      <path
         id="path43"
         d="m 0,0 c 54.777,0 99.454,44.677 99.454,99.455 0,54.777 -44.677,99.453 -99.454,99.453 -54.777,0 -99.455,-44.676 -99.455,-99.453 C -99.455,44.677 -54.777,0 0,0"
         style="fill:#fab40a;fill-opacity:1;fill-rule:evenodd;stroke:none"
         transform="matrix(1.3333333,0,0,-1.3333333,440.01627,464.306)"
         clip-path="url(#clipPath44)" />
      <path
         id="path45"
         d="m 0,0 c 48.376,0 87.832,39.455 87.832,87.831 0,48.376 -39.456,87.831 -87.832,87.831 -48.376,0 -87.832,-39.455 -87.832,-87.831 C -87.832,39.455 -48.376,0 0,0"
         style="fill:#523816;fill-opacity:1;fill-rule:evenodd;stroke:none"
         transform="matrix(1.3333333,0,0,-1.3333333,440.01627,441.67973)"
         clip-path="url(#clipPath46)" />
      <path
         id="path47"
         d="m 0,0 c 25.423,0 41.999,-25.396 37.023,-56.725 -4.974,-31.328 -29.617,-56.724 -55.04,-56.724 -25.423,0 -42,25.396 -37.023,56.724 C -50.066,-25.396 -25.422,0 0,0"
         style="fill:#644319;fill-opacity:1;fill-rule:evenodd;stroke:none"
         transform="matrix(1.3333333,0,0,-1.3333333,407.4284,227.55467)"
         clip-path="url(#clipPath48)" />
      <path
         id="path49"
         d="m 0,0 c 5.636,5.636 14.773,5.636 20.408,0 5.637,-5.637 5.637,-14.775 0,-20.409 C 3.969,-36.85 -7.906,-59.62 -19.779,-82.391 -46.662,-133.94 -73.545,-185.49 -150.647,-185.49 c -77.103,0 -103.986,51.55 -130.868,103.099 -11.874,22.771 -23.749,45.541 -40.189,61.982 -5.635,5.634 -5.635,14.772 0,20.409 5.636,5.636 14.773,5.636 20.409,0 19.304,-19.305 32.284,-44.196 45.264,-69.085 22.825,-43.77 45.65,-87.539 105.384,-87.539 59.733,0 82.559,43.769 105.383,87.539 C -32.284,-44.196 -19.304,-19.305 0,0"
         style="fill:#fbca07;fill-opacity:1;fill-rule:evenodd;stroke:none"
         transform="matrix(1.3333333,0,0,-1.3333333,640.87893,575.61587)"
         clip-path="url(#clipPath50)" />
      <path
         id="path51"
         d="m 0,0 c -18.621,-18.862 -31.209,-43.708 -43.27,-67.14 -12.649,-24.573 -26.163,-51.192 -47.4,-69.335 -18.401,-15.72 -39.639,-22.473 -63.572,-22.473 -23.934,0 -45.17,6.753 -63.572,22.473 -21.237,18.143 -34.751,44.762 -47.398,69.335 -12.063,23.432 -24.652,48.278 -43.272,67.14 -2.504,2.536 -6.557,2.536 -9.06,0 -2.505,-2.536 -2.505,-6.643 0,-9.179 17.542,-17.773 29.696,-41.816 41.076,-63.923 12.337,-23.971 25.508,-50.103 44.799,-69.144 21.733,-21.45 47.393,-29.687 77.427,-29.687 30.034,0 55.693,8.237 77.428,29.687 19.291,19.039 32.46,45.173 44.797,69.144 11.381,22.107 23.535,46.15 41.078,63.923 2.504,2.536 2.504,6.643 0,9.179 C 6.556,2.536 2.504,2.536 0,0"
         style="fill:#f9de1c;fill-opacity:1;fill-rule:evenodd;stroke:none"
         transform="matrix(1.3333333,0,0,-1.3333333,645.67187,577.75787)"
         clip-path="url(#clipPath52)" />
      <path
         id="path53"
         d="M 0,0 C -8.977,11.334 -22.143,30.95 -0.692,38.239 15.006,43.576 49.372,27.131 65.313,21.207 87.226,13.064 112.627,1.034 117.684,-24.053 120.646,-75.692 54.526,-97.934 26.536,-48.904 16.379,-31.113 13.477,-17.833 0,0"
         style="fill:#f39c0f;fill-opacity:1;fill-rule:evenodd;stroke:none"
         transform="matrix(1.3333333,0,0,-1.3333333,317.03907,623.68493)"
         clip-path="url(#clipPath54)" />
    </g>
  </g>
</svg>
